<svg width="18" height="18" viewBox="0 0 18 18" fill="none" xmlns="http://www.w3.org/2000/svg">
<g clip-path="url(#clip0_9994_2912)">
<path d="M9.00181 0C8.80381 0 8.60806 0.00675 8.41344 0.019125L8.48544 1.14188C8.82933 1.11965 9.1743 1.11965 9.51819 1.14188L9.59019 0.019125C9.39432 0.00642513 9.19809 4.68135e-05 9.00181 0ZM7.24681 0.171C6.85756 0.248625 6.47731 0.351 6.10831 0.47475L6.46944 1.54125C6.79231 1.431 7.12419 1.34213 7.46394 1.27463L7.24681 0.172125V0.171ZM11.8953 0.475875C11.5233 0.349744 11.1433 0.248274 10.7579 0.172125L10.5397 1.27463C10.8794 1.34213 11.2113 1.43213 11.5342 1.54125L11.8953 0.475875ZM14.0024 1.5165C13.6759 1.29796 13.3354 1.10104 12.9832 0.927L12.4848 1.935C12.7942 2.088 13.0923 2.26125 13.3769 2.45138L14.0024 1.5165ZM5.01931 0.927C4.66606 1.10138 4.32631 1.29825 4.00119 1.5165L4.62669 2.45025C4.91261 2.2594 5.21061 2.08729 5.51881 1.935L5.01931 0.927ZM3.06744 2.23313C2.77269 2.49188 2.49369 2.77087 2.23494 3.06563L3.08094 3.80813C3.30819 3.54938 3.55119 3.30638 3.80994 3.07913L3.06744 2.23313ZM15.7687 3.06563C15.5095 2.77038 15.2314 2.49229 14.9362 2.23313L14.1937 3.07913C14.4524 3.30638 14.6966 3.54938 14.9227 3.80813L15.7687 3.06563ZM17.0748 5.0175C16.9008 4.6656 16.7039 4.3255 16.4853 3.99938L15.5516 4.62488C15.7417 4.9095 15.9138 5.20763 16.0668 5.517L17.0748 5.01863V5.0175ZM1.51831 3.99938C1.30006 4.3245 1.10206 4.66425 0.928812 5.01863L1.93681 5.517C2.08981 5.20763 2.26306 4.9095 2.45319 4.62488L1.51831 3.99938ZM0.477687 6.1065C0.351553 6.47854 0.250083 6.85849 0.173937 7.24388L1.27644 7.46213C1.34394 7.12238 1.43394 6.7905 1.54306 6.46763L0.477687 6.1065ZM17.8308 7.245C17.7547 6.85923 17.6532 6.4789 17.5271 6.1065L16.4606 6.46763C16.5708 6.7905 16.6597 7.12238 16.7272 7.46213L17.8297 7.24388L17.8308 7.245ZM0.0209375 8.41163C-0.004375 8.80347 -0.004375 9.19653 0.0209375 9.58838L1.14369 9.51638C1.12146 9.17248 1.12146 8.82752 1.14369 8.48363L0.0209375 8.41163ZM18.0018 9C18.0018 8.80372 17.9954 8.60749 17.9827 8.41163L16.8599 8.48363C16.8822 8.82752 16.8822 9.17249 16.8599 9.51638L17.9827 9.58838C17.9954 9.39251 18.0018 9.19628 18.0018 9ZM0.172812 10.755C0.250437 11.1443 0.352812 11.5245 0.476562 11.8935L1.54306 11.5324C1.43241 11.2071 1.34335 10.8749 1.27644 10.5379L0.173937 10.7561L0.172812 10.755ZM17.5259 11.8935C17.6519 11.5245 17.7532 11.1443 17.8297 10.7561L16.7272 10.5379C16.6597 10.8776 16.5697 11.2095 16.4606 11.5324L17.5259 11.8935ZM0.928812 12.9825C1.1029 13.3344 1.29982 13.6745 1.51831 14.0006L2.45206 13.3751C2.26102 13.0893 2.0889 12.7913 1.93681 12.483L0.928812 12.9814V12.9825ZM16.4853 14.0006C16.7036 13.6755 16.9016 13.3358 17.0748 12.9814L16.0668 12.483C15.9138 12.7924 15.7406 13.0905 15.5504 13.3751L16.4853 14.0006ZM2.23494 14.9344C2.49369 15.2291 2.77269 15.5081 3.06744 15.7669L3.80994 14.9209C3.55138 14.694 3.30786 14.4504 3.08094 14.1919L2.23494 14.9344ZM14.9362 15.7669C15.2309 15.5081 15.5099 15.2291 15.7687 14.9344L14.9227 14.1919C14.6966 14.4506 14.4524 14.6948 14.1937 14.9209L14.9362 15.7669ZM12.9843 17.073C13.3376 16.8986 13.6773 16.7018 14.0024 16.4835L13.3769 15.5498C13.091 15.7406 12.793 15.9127 12.4848 16.065L12.9832 17.073H12.9843ZM4.00119 16.4835C4.32631 16.7018 4.66606 16.8998 5.02044 17.073L5.51881 16.065C5.21048 15.9125 4.91246 15.7401 4.62669 15.5486L4.00119 16.4835ZM6.10831 17.5241C6.47731 17.6501 6.85756 17.7514 7.24569 17.8279L7.46394 16.7254C7.12694 16.6584 6.79472 16.5694 6.46944 16.4588L6.10831 17.5241ZM10.7568 17.829C11.1426 17.7529 11.5229 17.6514 11.8953 17.5253L11.5342 16.4588C11.2089 16.5694 10.8767 16.6584 10.5397 16.7254L10.7579 17.8279L10.7568 17.829ZM8.41344 17.9809C8.80528 18.0062 9.19835 18.0062 9.59019 17.9809L9.51819 16.8581C9.1743 16.8804 8.82933 16.8804 8.48544 16.8581L8.41344 17.9809ZM9.56431 5.0625C9.56431 4.91332 9.50505 4.77024 9.39956 4.66475C9.29407 4.55926 9.151 4.5 9.00181 4.5C8.85263 4.5 8.70955 4.55926 8.60406 4.66475C8.49858 4.77024 8.43931 4.91332 8.43931 5.0625V8.4375H5.06431C4.91513 8.4375 4.77205 8.49676 4.66656 8.60225C4.56108 8.70774 4.50181 8.85082 4.50181 9C4.50181 9.14919 4.56108 9.29226 4.66656 9.39775C4.77205 9.50324 4.91513 9.5625 5.06431 9.5625H8.43931V12.9375C8.43931 13.0867 8.49858 13.2298 8.60406 13.3352C8.70955 13.4407 8.85263 13.5 9.00181 13.5C9.151 13.5 9.29407 13.4407 9.39956 13.3352C9.50505 13.2298 9.56431 13.0867 9.56431 12.9375V9.5625H12.9393C13.0885 9.5625 13.2316 9.50324 13.3371 9.39775C13.4425 9.29226 13.5018 9.14919 13.5018 9C13.5018 8.85082 13.4425 8.70774 13.3371 8.60225C13.2316 8.49676 13.0885 8.4375 12.9393 8.4375H9.56431V5.0625Z" fill="white"/>
</g>
<defs>
<clipPath id="clip0_9994_2912">
<rect width="18" height="18" fill="white"/>
</clipPath>
</defs>
</svg>
