<svg width="25" height="25" viewBox="0 0 64 65" fill="none" xmlns="http://www.w3.org/2000/svg">
<g clip-path="url(#clip0_6119_70280)">
<path d="M44 28.5H20C18.8974 28.5 18 29.3964 18 30.5V64.5H46V30.5C46 29.3964 45.1026 28.5 44 28.5ZM25.9786 59.5C25.9786 60.6054 25.083 61.5 23.9786 61.5H21.9786C20.8742 61.5 19.9786 60.6054 19.9786 59.5V57.5C19.9786 56.3946 20.8742 55.5 21.9786 55.5H23.9786C25.083 55.5 25.9786 56.3946 25.9786 57.5V59.5ZM25.9786 51.5C25.9786 52.6054 25.083 53.5 23.9786 53.5H21.9786C20.8742 53.5 19.9786 52.6054 19.9786 51.5V49.5C19.9786 48.3946 20.8742 47.5 21.9786 47.5H23.9786C25.083 47.5 25.9786 48.3946 25.9786 49.5V51.5ZM25.9786 43.5C25.9786 44.6054 25.083 45.5 23.9786 45.5H21.9786C20.8742 45.5 19.9786 44.6054 19.9786 43.5V41.5C19.9786 40.3946 20.8742 39.5 21.9786 39.5H23.9786C25.083 39.5 25.9786 40.3946 25.9786 41.5V43.5ZM25.9786 35.5C25.9786 36.6054 25.083 37.5 23.9786 37.5H21.9786C20.8742 37.5 19.9786 36.6054 19.9786 35.5V33.5C19.9786 32.3946 20.8742 31.5 21.9786 31.5H23.9786C25.083 31.5 25.9786 32.3946 25.9786 33.5V35.5ZM42.0216 60.5H31.9786C30.8742 60.5 29.9786 59.6054 29.9786 58.5C29.9786 57.3946 30.8742 56.5 31.9786 56.5H42.0216C43.126 56.5 44.0216 57.3946 44.0216 58.5C44.0216 59.6054 43.126 60.5 42.0216 60.5ZM42.0216 52.5H31.9786C30.8742 52.5 29.9786 51.6054 29.9786 50.5C29.9786 49.3946 30.8742 48.5 31.9786 48.5H42.0216C43.126 48.5 44.0216 49.3946 44.0216 50.5C44.0216 51.6054 43.126 52.5 42.0216 52.5ZM42.0216 44.5H31.9786C30.8742 44.5 29.9786 43.6054 29.9786 42.5C29.9786 41.3946 30.8742 40.5 31.9786 40.5H42.0216C43.126 40.5 44.0216 41.3946 44.0216 42.5C44.0216 43.6054 43.126 44.5 42.0216 44.5ZM42.0216 36.5H31.9786C30.8742 36.5 29.9786 35.6054 29.9786 34.5C29.9786 33.3946 30.8742 32.5 31.9786 32.5H42.0216C43.126 32.5 44.0216 33.3946 44.0216 34.5C44.0216 35.6054 43.126 36.5 42.0216 36.5Z" fill="#000"/>
<path d="M63.1826 22.8867L33.1826 0.8867C32.4794 0.3711 31.5204 0.3711 30.8174 0.8867L0.817426 22.8867C0.120226 23.3985 -0.169974 24.3007 0.0996258 25.1231C0.368226 25.9435 1.13483 26.5001 2.00003 26.5001H6.42883V60.4999C6.42883 62.7049 8.22283 64.4999 10.4288 64.4999H14V30.4999C14 27.1913 16.6914 24.4999 20 24.4999H44C47.3086 24.4999 50 27.1913 50 30.4999V64.4999H53.5712C55.7772 64.4999 57.5712 62.7049 57.5712 60.4999V26.4999H62C62.8652 26.4999 63.6318 25.9433 63.9004 25.1229C64.17 24.3007 63.8798 23.3985 63.1826 22.8867Z" fill="#000"/>
</g>
<defs>
<clipPath id="clip0_6119_70280">
<rect width="64" height="64" fill="black" transform="translate(0 0.5)"/>
</clipPath>
</defs>
</svg>
